<?xml version="1.0" standalone="no"?>
<!DOCTYPE svg PUBLIC "-//W3C//DTD SVG 20010904//EN"
 "http://www.w3.org/TR/2001/REC-SVG-20010904/DTD/svg10.dtd">
<svg version="1.0" xmlns="http://www.w3.org/2000/svg"
 width="685.000000pt" height="685.000000pt" viewBox="0 0 685.000000 685.000000"
 preserveAspectRatio="xMidYMid meet">
<metadata>
Created by potrace 1.11, written by Peter Selinger 2001-2013
</metadata>
<g transform="translate(0.000000,685.000000) scale(0.100000,-0.100000)"
fill="#000000" stroke="none">
<path d="M3090 6005 c-411 -55 -790 -197 -1132 -424 -164 -109 -290 -214 -434
-362 -134 -139 -213 -237 -316 -394 -198 -302 -329 -636 -395 -1005 -31 -178
-43 -517 -24 -706 61 -607 328 -1171 761 -1604 410 -411 929 -670 1515 -757
149 -21 541 -24 685 -4 610 84 1130 341 1552 768 479 484 742 1093 765 1773
30 893 -378 1716 -1115 2250 -305 220 -698 381 -1103 451 -161 28 -595 36
-759 14z m675 -1123 c185 -321 339 -590 342 -598 4 -12 -13 -14 -101 -14 -58
0 -106 -2 -106 -4 0 -3 119 -211 265 -463 l264 -458 -170 -3 c-157 -2 -171 -4
-166 -20 3 -9 190 -336 415 -727 l411 -710 -598 -3 -599 -2 -4 -93 c-3 -78 -8
-100 -33 -146 -56 -102 -151 -156 -273 -154 -110 1 -217 73 -263 178 -11 24
-22 80 -25 129 l-7 86 -593 0 c-327 0 -594 2 -594 4 0 3 185 324 410 715 226
391 413 718 416 726 5 13 -18 15 -165 15 -94 0 -171 2 -171 4 0 3 119 211 264
463 l265 458 -109 5 -108 5 345 598 c190 329 347 597 348 595 2 -2 154 -265
340 -586z"/>
<path d="M3407 5139 c-31 -50 -398 -690 -403 -704 -5 -13 10 -15 100 -15 58 0
106 -2 106 -4 0 -2 -119 -211 -265 -463 l-264 -458 173 -5 174 -5 -410 -710
c-226 -390 -412 -716 -415 -723 -4 -9 107 -12 536 -12 l541 0 0 -151 c0 -171
9 -199 73 -234 47 -25 128 -17 163 16 49 45 54 68 54 223 l0 146 540 2 540 3
-415 719 c-228 396 -415 721 -415 722 0 2 78 5 173 6 l173 3 -263 455 c-144
250 -263 458 -263 463 0 4 47 7 105 7 58 0 105 2 105 4 0 6 -411 719 -420 730
-5 4 -15 -2 -23 -15z"/>
</g>
</svg>
